<svg xmlns="http://www.w3.org/2000/svg" viewBox="0 0 64 64">
  <defs>
    <linearGradient id="g" x1="0" x2="1">
      <stop offset="0%" stop-color="#22c55e"/>
      <stop offset="100%" stop-color="#16a34a"/>
    </linearGradient>
  </defs>
  <rect width="64" height="64" rx="12" fill="#ffffff"/>
  <path d="M22 20c-4 0-6 3-6 7v10c0 4 2 7 6 7 2 0 4 1 5 3 1-2 3-3 5-3 4 0 6-3 6-7V27c0-4-2-7-6-7-2 0-4-1-5-3-1 2-3 3-5 3z" fill="url(#g)"/>
  <rect x="40" y="12" width="18" height="10" rx="2" fill="#fbbf24"/>
  <rect x="42" y="22" width="4" height="6" fill="#0ea5e9"/>
</svg>
